<?xml version="1.0" standalone="no"?>
<!DOCTYPE svg PUBLIC "-//W3C//DTD SVG 20010904//EN"
 "http://www.w3.org/TR/2001/REC-SVG-20010904/DTD/svg10.dtd">
<svg version="1.0" xmlns="http://www.w3.org/2000/svg"
 width="1443.000000pt" height="1083.000000pt" viewBox="0 0 1443.000000 1083.000000"
 preserveAspectRatio="xMidYMid meet">

<g transform="translate(0.000000,1083.000000) scale(0.100000,-0.100000)"
fill="#000000" stroke="none">
<path d="M7613 10315 c-68 -19 -120 -52 -170 -109 -84 -95 -110 -204 -79 -324
27 -106 91 -182 196 -231 79 -37 205 -36 304 2 38 15 70 26 71 25 9 -10 275
-483 275 -489 0 -3 -206 -10 -457 -13 -578 -8 -705 -16 -804 -52 -279 -100
-478 -281 -606 -550 -77 -162 -74 -114 -82 -1344 -5 -602 -6 -1097 -4 -1100 3
-3 692 -7 1531 -10 l1527 -5 6 -630 c3 -346 7 -688 8 -760 l1 -130 331 330
c463 461 846 861 945 984 136 169 204 336 224 549 6 66 10 606 10 1408 l0
1301 -952 7 c-524 3 -963 9 -976 12 -22 6 -21 9 37 120 61 113 177 312 204
348 14 20 16 19 107 -8 77 -24 103 -28 161 -23 122 10 216 69 279 173 35 58
35 59 35 174 0 115 0 116 -35 174 -73 122 -175 179 -315 180 -69 0 -90 -4
-145 -31 -36 -16 -85 -50 -109 -74 -67 -66 -88 -123 -96 -255 l-7 -112 -135
-228 c-74 -126 -148 -254 -165 -284 -16 -30 -46 -81 -66 -112 l-37 -58 -77 0
-77 0 -72 123 c-40 67 -133 225 -206 351 l-133 229 0 81 c-1 106 -11 146 -54
212 -46 68 -113 118 -195 144 -73 23 -125 24 -198 5z m260 -2093 c74 -37 148
-111 187 -188 22 -44 25 -61 25 -164 0 -98 -3 -122 -22 -160 -32 -65 -117
-146 -193 -183 -60 -30 -72 -32 -165 -32 -88 0 -107 3 -157 27 -80 37 -152
107 -191 187 -30 61 -32 73 -32 166 0 87 3 107 27 157 47 100 137 180 241 214
26 9 74 13 128 11 74 -3 96 -8 152 -35z m1269 0 c79 -38 149 -110 186 -190 24
-50 27 -69 27 -157 0 -88 -3 -107 -27 -157 -86 -184 -287 -270 -488 -209 -63
19 -79 30 -135 86 -95 96 -110 135 -110 275 0 105 2 120 27 170 46 93 139 173
241 206 26 9 74 13 128 11 74 -3 96 -8 151 -35z"/>
<path d="M5306 7000 c-437 -433 -794 -804 -903 -940 -60 -75 -102 -140 -144
-226 -101 -204 -94 -82 -94 -1656 0 -751 3 -1370 7 -1374 4 -4 416 -9 915 -11
499 -2 932 -6 961 -9 39 -4 52 -9 52 -21 0 -31 -246 -469 -268 -478 -7 -3 -41
7 -75 22 -53 24 -76 28 -157 28 -79 0 -103 -4 -141 -23 -63 -31 -139 -109
-175 -179 -26 -51 -29 -68 -29 -148 0 -78 4 -97 28 -147 36 -74 119 -150 195
-178 73 -28 202 -25 273 7 128 57 189 161 207 349 l9 92 98 173 c172 304 285
488 304 499 22 11 131 13 147 2 16 -11 82 -113 162 -249 271 -463 244 -407
252 -529 8 -123 36 -191 107 -262 202 -202 522 -106 597 180 13 50 13 64 0
119 -43 183 -162 289 -336 297 -66 4 -87 0 -146 -23 -38 -15 -78 -25 -88 -23
-35 6 -298 473 -275 488 7 4 254 10 551 14 522 6 542 7 632 30 335 85 605 343
714 681 39 119 43 246 43 1348 l1 977 -1524 0 -1524 0 -7 233 c-3 127 -10 468
-13 757 l-7 525 -349 -345z m476 -2558 c79 -38 149 -110 186 -190 24 -50 27
-69 27 -162 0 -93 -3 -112 -27 -162 -93 -198 -335 -288 -527 -196 -66 31 -166
135 -199 205 -23 50 -27 70 -26 148 1 115 26 184 96 260 92 101 176 136 314
132 79 -2 100 -7 156 -35z m1680 0 c79 -38 149 -110 186 -190 24 -50 27 -69
27 -162 0 -93 -3 -112 -27 -162 -73 -157 -251 -254 -414 -228 -128 21 -240
103 -297 219 -30 61 -32 72 -32 171 0 93 3 112 27 162 47 100 137 180 241 214
26 9 76 13 133 11 79 -2 100 -7 156 -35z"/>
</g>
</svg>
